<svg xmlns="http://www.w3.org/2000/svg" xmlns:xlink="http://www.w3.org/1999/xlink" width="192" zoomAndPan="magnify" viewBox="0 0 144 143.999998" height="192" preserveAspectRatio="xMidYMid meet" version="1.0"><defs><clipPath id="55a5f88b3f"><path d="M 72 0 C 32.234375 0 0 32.234375 0 72 C 0 111.765625 32.234375 144 72 144 C 111.765625 144 144 111.765625 144 72 C 144 32.234375 111.765625 0 72 0 Z M 72 0 " clipRule="nonzero"/></clipPath><clipPath id="71584e12c9"><path d="M 25.433594 55 L 92 55 L 92 109.378906 L 25.433594 109.378906 Z M 25.433594 55 " clipRule="nonzero"/></clipPath><clipPath id="c069157c1f"><path d="M 52 34.378906 L 118.433594 34.378906 L 118.433594 89 L 52 89 Z M 52 34.378906 " clipRule="nonzero"/></clipPath></defs><g clip-path="url(#55a5f88b3f)"><rect x="-14.4" width="172.8" fill="#172554" y="-14.4" height="172.799997" fill-opacity="1"/></g><g clip-path="url(#71584e12c9)"><path fill="#d9d9d9" d="M 78.871094 55 L 37.632812 55 C 30.894531 55 25.433594 60.460938 25.433594 67.199219 L 25.433594 87.820312 C 25.433594 92.769531 28.390625 97.195312 32.960938 99.089844 C 35.773438 100.257812 37.34375 103.265625 36.691406 106.242188 L 36.433594 107.4375 C 36.15625 108.707031 37.632812 109.613281 38.636719 108.789062 L 43.585938 104.726562 C 47.285156 101.691406 51.960938 100.019531 56.75 100.019531 L 78.871094 100.019531 C 85.609375 100.019531 91.070312 94.554688 91.070312 87.820312 L 91.070312 67.199219 C 91.070312 60.460938 85.609375 55 78.871094 55 Z M 58.253906 82.492188 L 37.632812 82.492188 C 36.78125 82.492188 36.085938 81.800781 36.085938 80.945312 C 36.085938 80.089844 36.78125 79.398438 37.632812 79.398438 L 58.253906 79.398438 C 59.105469 79.398438 59.800781 80.09375 59.800781 80.945312 C 59.800781 81.800781 59.105469 82.492188 58.253906 82.492188 Z M 78.871094 68.746094 L 37.632812 68.746094 C 36.78125 68.746094 36.085938 68.054688 36.085938 67.199219 C 36.085938 66.34375 36.78125 65.652344 37.632812 65.652344 L 78.871094 65.652344 C 79.726562 65.652344 80.417969 66.34375 80.417969 67.199219 C 80.417969 68.054688 79.726562 68.746094 78.871094 68.746094 Z M 78.871094 68.746094 " fill-opacity="1" fillRule="nonzero"/></g><g clip-path="url(#c069157c1f)"><path fill="#d9d9d9" d="M 106.363281 34.378906 L 65.125 34.378906 C 58.386719 34.378906 52.925781 39.84375 52.925781 46.582031 L 52.925781 51.90625 L 78.871094 51.90625 C 79 51.90625 79.128906 51.910156 79.257812 51.910156 C 79.386719 51.914062 79.515625 51.917969 79.644531 51.925781 C 79.960938 51.941406 80.28125 51.96875 80.597656 52.003906 C 80.722656 52.015625 80.851562 52.03125 80.976562 52.050781 C 81.101562 52.066406 81.226562 52.085938 81.351562 52.105469 C 82.542969 52.300781 83.703125 52.636719 84.824219 53.109375 C 85.964844 53.589844 87.027344 54.203125 88.011719 54.933594 C 88.601562 55.375 89.160156 55.859375 89.6875 56.386719 C 91.089844 57.789062 92.191406 59.425781 92.960938 61.246094 C 93.761719 63.132812 94.164062 65.136719 94.164062 67.199219 L 94.164062 80.585938 C 96.441406 81.386719 98.535156 82.570312 100.414062 84.109375 L 105.359375 88.167969 C 106.363281 88.992188 107.84375 88.085938 107.566406 86.820312 L 107.304688 85.625 C 106.65625 82.648438 108.222656 79.640625 111.039062 78.472656 C 115.609375 76.574219 118.5625 72.148438 118.5625 67.199219 L 118.5625 46.582031 C 118.5625 39.84375 113.101562 34.378906 106.363281 34.378906 Z M 106.363281 34.378906 " fill-opacity="1" fillRule="nonzero"/></g></svg>